<svg xmlns="http://www.w3.org/2000/svg" width="22" height="16" viewBox="0 0 22 16"><path d="M6.328,14.75A14.169,14.169,0,0,1,2.875,12,19.132,19.132,0,0,1,0,8,19.105,19.105,0,0,1,2.875,4,14.186,14.186,0,0,1,6.328,1.25,9.593,9.593,0,0,1,11,0a9.593,9.593,0,0,1,4.672,1.25A14.186,14.186,0,0,1,19.125,4,19.15,19.15,0,0,1,22,8a19.105,19.105,0,0,1-2.875,4,14.186,14.186,0,0,1-3.453,2.75A9.593,9.593,0,0,1,11,16,9.593,9.593,0,0,1,6.328,14.75ZM6,8a5,5,0,1,0,5-5A5.005,5.005,0,0,0,6,8ZM8,8a3,3,0,1,1,3,3A3,3,0,0,1,8,8Z"/></svg>