<svg xmlns="http://www.w3.org/2000/svg" width="26.192" height="16" viewBox="0 0 26.192 16"><path d="M7.534,14.75A16.744,16.744,0,0,1,3.422,12,19.447,19.447,0,0,1,0,8,19.44,19.44,0,0,1,3.422,4,16.765,16.765,0,0,1,7.534,1.25a13,13,0,0,1,11.125,0A16.765,16.765,0,0,1,22.77,4a19.464,19.464,0,0,1,3.422,4,19.44,19.44,0,0,1-3.422,4,16.765,16.765,0,0,1-4.111,2.75,13,13,0,0,1-11.125,0ZM7.144,8c0,2.757,2.67,5,5.952,5s5.953-2.243,5.953-5S16.379,3,13.1,3,7.144,5.243,7.144,8ZM9.525,8A3.323,3.323,0,0,1,13.1,5a3.324,3.324,0,0,1,3.572,3A3.324,3.324,0,0,1,13.1,11,3.323,3.323,0,0,1,9.525,8Z"/></svg>