<svg xmlns="http://www.w3.org/2000/svg" width="11.052" height="21" viewBox="0 0 11.052 21"><path d="M367.889,520.658c0-.052,0-.1,0-.154q0-4.653,0-9.3v-.118h-3.128c-.14,0-.14,0-.14-.133,0-1.159,0-2.321,0-3.482,0-.105.032-.133.135-.131q1.5,0,3,0h.14v-.113c0-.965-.008-1.93.007-2.895a5.233,5.233,0,0,1,.5-2.234,4.067,4.067,0,0,1,2.183-2.047,5.169,5.169,0,0,1,2.067-.389c.817.013,1.635.048,2.452.078.151.006.3.031.454.039.086,0,.114.035.114.119,0,.482,0,.961,0,1.443,0,.567,0,1.133,0,1.7,0,.1-.028.13-.129.128-.62,0-1.241-.011-1.861,0a4.468,4.468,0,0,0-.843.1,1.169,1.169,0,0,0-.949.985,3.375,3.375,0,0,0-.069.643c-.008.787,0,1.572,0,2.36,0,.024,0,.046.006.083h3.565c.151,0,.153,0,.135.141-.08.619-.164,1.237-.245,1.856q-.1.775-.194,1.55c-.024.2-.019.2-.221.2H371.82v9.351c0,.076,0,.15,0,.226Z" transform="translate(-364.624 -499.658)" fill="#666"/></svg>