<svg xmlns="http://www.w3.org/2000/svg" width="20" height="23.003" viewBox="0 0 20 23.003"><g transform="translate(-3.833 -2.72)"><path d="M22.336,16.223a8.449,8.449,0,0,1-1.722,4.642,10.685,10.685,0,0,0-1.859-.85,15.059,15.059,0,0,0,.586-3.792h-1a14.139,14.139,0,0,1-.538,3.5,15.908,15.908,0,0,0-7.914,0,14.185,14.185,0,0,1-.538-3.5h-1a15.1,15.1,0,0,0,.586,3.792,10.685,10.685,0,0,0-1.859.85,8.45,8.45,0,0,1-1.723-4.642H3.858A9.962,9.962,0,0,0,6.5,22.506c.183.2.375.391.574.574a10,10,0,0,0,14.121-.574,9.2,9.2,0,0,0,.639-.764,9.952,9.952,0,0,0,2-5.519Zm-14.6,5.41L7.8,21.6a9.977,9.977,0,0,1,1.452-.638h0a8.941,8.941,0,0,0,1.583,2.716A8.522,8.522,0,0,1,7.735,21.633Zm6.11,2.59c-1.136,0-2.277-.9-3.13-2.462a9.484,9.484,0,0,1-.505-1.093,15.071,15.071,0,0,1,7.271,0,9.484,9.484,0,0,1-.505,1.093C16.121,23.323,14.98,24.223,13.845,24.223Zm3.01-.55a8.919,8.919,0,0,0,1.58-2.715,9.918,9.918,0,0,1,1.451.638l.063.036A8.517,8.517,0,0,1,16.855,23.673Z" transform="translate(0)" fill="#d40511"/><path d="M23.82,13.471H3.846a9.8,9.8,0,0,0,0,1H23.82A9.8,9.8,0,0,0,23.82,13.471Z" fill="#d40511"/><path d="M5.355,12.221A8.446,8.446,0,0,1,7.076,7.579a10.588,10.588,0,0,0,1.86.85,15.112,15.112,0,0,0-.587,3.792h1a14.24,14.24,0,0,1,.538-3.5,15.456,15.456,0,0,0,3.958.5,15.448,15.448,0,0,0,3.957-.5,14.24,14.24,0,0,1,.538,3.5h1a15.112,15.112,0,0,0-.587-3.792,10.588,10.588,0,0,0,1.86-.85,8.444,8.444,0,0,1,1.722,4.642h1.5a9.941,9.941,0,0,0-2.64-6.283q-.275-.3-.573-.573A10,10,0,0,0,6.5,5.938,9.365,9.365,0,0,0,5.86,6.7a9.947,9.947,0,0,0-2,5.519Zm14.6-5.41-.066.037a9.881,9.881,0,0,1-1.453.638h0A8.912,8.912,0,0,0,16.853,4.77,8.534,8.534,0,0,1,19.956,6.811Zm-6.11-2.59c1.136,0,2.276.9,3.13,2.462a9.649,9.649,0,0,1,.5,1.093,14.6,14.6,0,0,1-3.635.445,14.6,14.6,0,0,1-3.635-.445,9.484,9.484,0,0,1,.505-1.093C11.57,5.121,12.71,4.221,13.847,4.221Zm-3.01.55a8.911,8.911,0,0,0-1.58,2.715A9.87,9.87,0,0,1,7.8,6.848l-.063-.036A8.529,8.529,0,0,1,10.836,4.771Z" transform="translate(0)" fill="#d40511"/></g></svg>