<svg xmlns="http://www.w3.org/2000/svg" width="19.462" height="20" viewBox="0 0 19.462 20"><path d="M396.991,499.658h-8.037a5.72,5.72,0,0,0-5.714,5.712v8.575a5.72,5.72,0,0,0,5.714,5.714h8.037a5.72,5.72,0,0,0,5.712-5.714V505.37A5.719,5.719,0,0,0,396.991,499.658Zm4.248,14.286a4.253,4.253,0,0,1-4.248,4.249h-8.037a4.253,4.253,0,0,1-4.248-4.249V505.37a4.252,4.252,0,0,1,4.248-4.248h8.037a4.252,4.252,0,0,1,4.248,4.248Z" transform="translate(-383.241 -499.658)" fill="#666"/><path d="M391.308,502.3a5.289,5.289,0,0,0-3.866,1.522,5.649,5.649,0,0,0-1.7,4.027,5.547,5.547,0,0,0,5.535,5.548,5.439,5.439,0,0,0,3.9-1.626,5.692,5.692,0,0,0,1.639-3.9,5.385,5.385,0,0,0-1.371-3.885A5.719,5.719,0,0,0,391.308,502.3Zm3.642,5.528a3.67,3.67,0,1,1-7.339.02,3.774,3.774,0,0,1,1.13-2.686,3.449,3.449,0,0,1,2.411-.995l.1,0a3.915,3.915,0,0,1,2.83,1.092A3.549,3.549,0,0,1,394.95,507.828Z" transform="translate(-381.549 -497.875)" fill="#666"/><circle cx="1.177" cy="1.177" r="1.177" transform="translate(14.037 3.292)" fill="#666"/></svg>