<svg xmlns="http://www.w3.org/2000/svg" viewBox="0 0 19.999 20" height="20" width="19.999"><g class="nc-icon-wrapper js-transition-icon" data-effect="scale" data-event="click"><g class="js-transition-icon__state"><path d="M362.174,415.358a9.919,9.919,0,0,0-.638-.763q-.275-.3-.573-.574a9.987,9.987,0,0,0-14.111.574,9.2,9.2,0,0,0-.639.764,9.983,9.983,0,0,0,0,12.039q.3.4.639.763h0c.183.2.375.39.574.573a9.985,9.985,0,0,0,14.11-.573,9.534,9.534,0,0,0,.638-.764A9.981,9.981,0,0,0,362.174,415.358Zm.506,5.52h-2.994a15.076,15.076,0,0,0-.586-3.792,10.638,10.638,0,0,0,1.858-.85A8.446,8.446,0,0,1,362.68,420.878Zm-2.381-5.41-.066.037a9.966,9.966,0,0,1-1.451.638h0a8.934,8.934,0,0,0-1.582-2.716A8.515,8.515,0,0,1,360.3,415.468Zm-10.6,5.41a14.15,14.15,0,0,1,.538-3.5,15.884,15.884,0,0,0,7.908,0,14.15,14.15,0,0,1,.538,3.5Zm8.984,1a14.164,14.164,0,0,1-.538,3.5,15.884,15.884,0,0,0-7.908,0,14.164,14.164,0,0,1-.538-3.5Zm-4.492-9c1.135,0,2.275.9,3.128,2.462a9.484,9.484,0,0,1,.505,1.093,15.049,15.049,0,0,1-7.265,0,9.489,9.489,0,0,1,.5-1.093C351.919,413.778,353.059,412.878,354.194,412.878Zm-3.008.55a8.941,8.941,0,0,0-1.579,2.715,10,10,0,0,1-1.45-.638l-.063-.036A8.519,8.519,0,0,1,351.186,413.428Zm-3.756,2.808a10.672,10.672,0,0,0,1.858.85,15.122,15.122,0,0,0-.586,3.792h-2.993A8.456,8.456,0,0,1,347.43,416.236Zm-1.721,5.642H348.7a15.129,15.129,0,0,0,.586,3.792,10.528,10.528,0,0,0-1.858.85A8.459,8.459,0,0,1,345.709,421.878Zm5.477,7.451a8.545,8.545,0,0,1-3.1-2.042l.067-.037a9.831,9.831,0,0,1,1.449-.637,8.94,8.94,0,0,0,1.58,2.716Zm3.008.549c-1.135,0-2.275-.9-3.128-2.462a9.64,9.64,0,0,1-.505-1.093,15.052,15.052,0,0,1,7.266,0,9.64,9.64,0,0,1-.505,1.093C356.469,428.978,355.329,429.878,354.194,429.878Zm3.008-.549a8.942,8.942,0,0,0,1.583-2.717,9.8,9.8,0,0,1,1.45.638l.067.037A8.53,8.53,0,0,1,357.2,429.329Zm3.757-2.809a10.581,10.581,0,0,0-1.859-.851,15.075,15.075,0,0,0,.586-3.791h2.994A8.451,8.451,0,0,1,360.959,426.52Z" transform="translate(-344.194 -411.377)" fill="#d40511"></path></g><g class="js-transition-icon__state" aria-hidden="true" style="display: none;"><path d="M509.238,415.876,507.6,414.24l-7.363,7.363-7.363-7.363-1.636,1.636,7.363,7.363-7.363,7.363,1.636,1.637,7.363-7.365,7.362,7.365,1.637-1.637-7.363-7.363Z" transform="translate(-491.238 -414.24)" fill="#d40511"></path></g></g><script>!function(){"use strict";if(!window.requestAnimationFrame){var a=null;window.requestAnimationFrame=function(t,i){var e=(new Date).getTime();a||(a=e);var s=Math.max(0,16-(e-a)),n=window.setTimeout(function(){t(e+s)},s);return a=e+s,n}}function r(t,i,e,s){return 1>(t/=s/2)?e/2*t*t*t*t+i:-e/2*((t-=2)*t*t*t-2)+i}function e(t){return t?[1,0]:[0,1]}function t(t){this.element=t,this.svg=function t(i){var e=i.parentNode;if("svg"!==e.tagName)e=t(e);return e;}(this.element),this.getSize(),this.states=this.element.querySelectorAll(".js-transition-icon__state"),this.time={start:null,total:200},this.status={interacted:!1,animating:!1},this.animation={effect:this.element.getAttribute("data-effect"),event:this.element.getAttribute("data-event")},this.init()}t.prototype.getSize=function(){var t=this.svg.getAttribute("viewBox");this.size=t?{width:t.split(" ")[2],height:t.split(" ")[3]}:this.svg.getBoundingClientRect()},t.prototype.init=function(){var t=this;this.svg.addEventListener(t.animation.event,function(){t.status.animating||(t.status.animating=!0,window.requestAnimationFrame(t.triggerAnimation.bind(t)))})},t.prototype.triggerAnimation=function(t){var i=this.getProgress(t);this.animateIcon(i),this.checkProgress(i)},t.prototype.getProgress=function(t){return this.time.start||(this.time.start=t),t-this.time.start},t.prototype.checkProgress=function(t){if(this.time.total>t)window.requestAnimationFrame(this.triggerAnimation.bind(this));else{this.status={interacted:!this.status.interacted,animating:!1},this.time.start=null;var i=e(this.status.interacted);this.states[i[0]].removeAttribute("aria-hidden"),this.states[i[1]].setAttribute("aria-hidden","true")}},t.prototype.animateIcon=function(t){if(t>this.time.total){t=this.time.total;}if(0>t){t=0;};var i=e(this.status.interacted);this.states[i[0]].style.display=t>this.time.total/2?"none":"block",this.states[i[1]].style.display=t>this.time.total/2?"block":"none","scale"==this.animation.effect?this.scaleIcon(t,i[0],i[1]):this.rotateIcon(t,i[0],i[1])},t.prototype.scaleIcon=function(t,i,e){var s=r(Math.min(t,this.time.total/2),1,-.2,this.time.total/2).toFixed(2),n=r(Math.max(t-this.time.total/2,0),.2,-.2,this.time.total/2).toFixed(2);this.states[i].setAttribute("transform","translate("+this.size.width*(1-s)/2+" "+this.size.height*(1-s)/2+") scale("+s+")"),this.states[e].setAttribute("transform","translate("+this.size.width*n/2+" "+this.size.height*n/2+") scale("+(1-n)+")")},t.prototype.rotateIcon=function(t,i,e){var s=r(t,0,180,this.time.total).toFixed(2);this.states[i].setAttribute("transform","rotate(-"+s+" "+this.size.width/2+" "+this.size.height/2+")"),this.states[e].setAttribute("transform","rotate("+(180-s)+" "+this.size.width/2+" "+this.size.height/2+")")};var i=document.querySelectorAll(".js-transition-icon");if(i)for(var s=0;i.length>s;s++)new t(i[s])}();</script></svg>