<svg xmlns="http://www.w3.org/2000/svg" width="19.764" height="20" viewBox="0 0 19.764 20"><path d="M425.387,499.641H409.606a2,2,0,0,0-1.991,2v16a2,2,0,0,0,1.991,2h15.781a2,2,0,0,0,1.991-2v-16A2,2,0,0,0,425.387,499.641Zm-11.431,15.825H411.3v-8.555h2.658Zm-1.346-9.6a1.333,1.333,0,1,1,1.434-1.33A1.327,1.327,0,0,1,412.61,505.862Zm11.056,9.6h-2.66v-4.741c0-1.1-.385-1.854-1.348-1.854a1.458,1.458,0,0,0-1.363,1,1.9,1.9,0,0,0-.088.665v4.933h-2.658V509.64c0-1.067-.035-1.96-.071-2.729h2.309l.124,1.189h.051a3.077,3.077,0,0,1,2.642-1.381c1.75,0,3.062,1.171,3.062,3.69Z" transform="translate(-407.615 -499.641)" fill="#666"/></svg>