<svg id="Group_4" data-name="Group 4" xmlns="http://www.w3.org/2000/svg" xmlns:xlink="http://www.w3.org/1999/xlink" width="18" height="18" viewBox="0 0 18 18">
  <defs>
    <clipPath id="clip-path">
      <path id="color" d="M16.673,18h0l-6.109-5.938a6.612,6.612,0,0,1-3.79,1.16,6.834,6.834,0,0,1-4.79-1.92A6.456,6.456,0,0,1,0,6.634,6.712,6.712,0,0,1,6.773,0,6.688,6.688,0,0,1,13.5,6.634a6.637,6.637,0,0,1-1.563,4.222L18,16.794,16.674,18ZM6.727,1.578a5.237,5.237,0,0,0-3.689,1.49A5.02,5.02,0,0,0,1.516,6.681a5.164,5.164,0,0,0,5.211,5.1,5.235,5.235,0,0,0,3.688-1.49,5.05,5.05,0,0,0,0-7.226A5.235,5.235,0,0,0,6.727,1.578Z" fill="#d40511"/>
    </clipPath>
  </defs>
  <path id="color-2" data-name="color" d="M16.673,18h0l-6.109-5.938a6.612,6.612,0,0,1-3.79,1.16,6.834,6.834,0,0,1-4.79-1.92A6.456,6.456,0,0,1,0,6.634,6.712,6.712,0,0,1,6.773,0,6.688,6.688,0,0,1,13.5,6.634a6.637,6.637,0,0,1-1.563,4.222L18,16.794,16.674,18ZM6.727,1.578a5.237,5.237,0,0,0-3.689,1.49A5.02,5.02,0,0,0,1.516,6.681a5.164,5.164,0,0,0,5.211,5.1,5.235,5.235,0,0,0,3.688-1.49,5.05,5.05,0,0,0,0-7.226A5.235,5.235,0,0,0,6.727,1.578Z"/>
</svg>
