<svg xmlns="http://www.w3.org/2000/svg" width="80" height="80" viewBox="0 0 80 80">
  <g id="Group_41" data-name="Group 41" transform="translate(-642 -835)">
    <circle id="Ellipse_6" data-name="Ellipse 6" cx="40" cy="40" r="40" transform="translate(642 835)" fill="#f2f2f2"/>
    <path id="ICO" d="M30.964,32.631a4.391,4.391,0,1,0-4.391-4.391A4.4,4.4,0,0,0,30.964,32.631Zm4.542-.045,5.862,5.862-1.343,1.343-6.037-6.037a6.318,6.318,0,1,1,1.518-1.168ZM16.361,4,30.2,8.391,16.84,13.449,3,8.391ZM3,26.716V10.2l12.977,4.768V32.247Zm27.578-6.778a8,8,0,0,0-8.3,8.3,4.518,4.518,0,0,0,.573,2.294L17.6,32.435V14.982l12.975-4.871Z" transform="translate(666.816 855)" fill="#d40511" fill-rule="evenodd"/>
  </g>
</svg>
