<svg xmlns="http://www.w3.org/2000/svg" width="80" height="80" viewBox="0 0 80 80">
  <g id="Group_42" data-name="Group 42" transform="translate(-642 -835)">
    <circle id="Ellipse_6" data-name="Ellipse 6" cx="40" cy="40" r="40" transform="translate(642 835)" fill="#f2f2f2"/>
    <path id="Union_3" data-name="Union 3" d="M3288.52,3774a14.519,14.519,0,1,1,.014,0Zm-10.743-14.513a10.742,10.742,0,1,0,10.743-10.749A10.75,10.75,0,0,0,3277.777,3759.487Zm11.5,9.268c-.222,0-.448-.006-.675-.006s-.451,0-.675.006h-.009c-.123,0-.15-.05-.15-.167.007-.613.007-1.234,0-1.848,0-.115.042-.157.159-.157h.007c.223,0,.449,0,.674,0s.449,0,.675,0h.007c.123,0,.153.05.153.165v1.848c0,.117-.044.16-.16.16Zm-7.786-3.315c.46-.461.931-.933,1.386-1.388.375.369.759.752,1.127,1.12-.462.461-.933.931-1.393,1.393C3282.241,3766.2,3281.858,3765.815,3281.491,3765.439Zm11.716-.255c.369-.366.75-.749,1.12-1.111l1.372,1.372,0,0,0,.005c-.354.345-.737.728-1.119,1.1C3294.132,3766.111,3293.663,3765.641,3293.208,3765.185Zm-6.8-3.54a2.809,2.809,0,0,1-.27-.583,2.646,2.646,0,0,1,.981-2.963.417.417,0,0,0,.182-.31q.465-3.534.938-7.073c.028-.224.145-.344.325-.344a.292.292,0,0,1,.22.084.478.478,0,0,1,.119.26c0,.015.007.037.007.051.16,1.054.324,2.1.484,3.156q.3,1.929.594,3.855a.361.361,0,0,0,.051.166l.02.027,0,0a.461.461,0,0,0,.1.086,2.671,2.671,0,0,1,1.048,2.99,2.664,2.664,0,0,1-4.8.592Zm10.406-1.355c-.31,0-.615-.009-.924,0-.116,0-.159-.039-.159-.159v-.01c0-.221.005-.447.005-.672s0-.455-.005-.678v-.006c0-.117.043-.151.159-.151.614.007,1.234.007,1.848,0,.122,0,.167.034.167.167v1.351c.007.12-.044.159-.167.159C3297.426,3760.281,3297.122,3760.289,3296.812,3760.289Zm-15.351,0h-.808c-.4,0-.8,0-1.2-.009-.05,0-.143-.057-.15-.094-.009-.511-.009-1.026-.009-1.553h2.174v1.655Zm1.412-5.423,0,0-1.386-1.385c.374-.376.767-.76,1.141-1.135l0,0,0,0,1.378,1.379c-.367.376-.75.759-1.133,1.142Zm10.34-1.143c.449-.457.926-.926,1.387-1.4.369.368.752.751,1.113,1.118l0,0,0,.005c-.455.455-.931.924-1.386,1.381Zm3.289-8.929c.563-.824,1.141-1.67,1.732-2.53.925.643,1.835,1.272,2.767,1.916q-.877,1.277-1.727,2.514C3298.343,3746.051,3297.426,3745.431,3296.5,3744.795Zm-10.534-1.994v-3.57c0-.172.039-.231.218-.231,1.545.01,3.084.01,4.629.01h.2v4a17.173,17.173,0,0,0-5.034.008C3285.977,3742.93,3285.968,3742.866,3285.968,3742.8Z" transform="translate(-2606 -2885)" fill="#d40511" stroke="rgba(0,0,0,0)" stroke-miterlimit="10" stroke-width="1"/>
  </g>
</svg>
