<svg xmlns="http://www.w3.org/2000/svg" width="80" height="80" viewBox="0 0 80 80">
  <g id="Group_43" data-name="Group 43" transform="translate(-642 -835)">
    <circle id="Ellipse_6" data-name="Ellipse 6" cx="40" cy="40" r="40" transform="translate(642 835)" fill="#f2f2f2"/>
    <path id="ICO" d="M20.905,16.3a.671.671,0,0,1,.673.671v6.477a.675.675,0,0,1-.673.675H14.428a.673.673,0,0,1-.671-.675v-.867a1.817,1.817,0,0,0,2.676-2.456L13.757,17v-.025a.671.671,0,0,1,.671-.671ZM10.882,25.127v.1l1.046,11.206a1.432,1.432,0,0,1-1.293,1.557A1.077,1.077,0,0,1,10.5,38a1.43,1.43,0,0,1-1.423-1.3L8.062,25.853H7.872L6.859,36.7A1.432,1.432,0,0,1,5.433,38a1.062,1.062,0,0,1-.134-.006,1.431,1.431,0,0,1-1.293-1.557L5.052,25.229v-.1H4.026l.892-12.106a2.882,2.882,0,0,1,2.975-2.777h.15a2.881,2.881,0,0,1,2.973,2.777l.111,1.493,5.011,5.862a1.434,1.434,0,0,1-2.18,1.863l-2.477-2.9.426,5.787ZM8.2,9.286a3.143,3.143,0,1,1,3.142-3.142A3.143,3.143,0,0,1,8.2,9.286ZM33.9,25.229l1.046,11.206a1.428,1.428,0,0,1-1.291,1.557,1.085,1.085,0,0,1-.136.008,1.43,1.43,0,0,1-1.423-1.3L31.08,25.855H30.89L29.877,36.7A1.433,1.433,0,0,1,28.451,38c-.045,0-.091,0-.134-.006a1.432,1.432,0,0,1-1.295-1.559l1.046-11.2v-.1H27.044l.424-5.787-2.475,2.9a1.433,1.433,0,1,1-2.176-1.865l5.009-5.86.111-1.493a2.881,2.881,0,0,1,2.975-2.777h.148a2.88,2.88,0,0,1,2.973,2.777l.891,12.1H33.9ZM30.755,9.286A3.143,3.143,0,1,1,33.9,6.144,3.143,3.143,0,0,1,30.755,9.286Z" transform="translate(662.484 851)" fill="#d40511" fill-rule="evenodd"/>
  </g>
</svg>
