<svg xmlns="http://www.w3.org/2000/svg" width="80" height="80" viewBox="0 0 80 80">
  <g id="Group_44" data-name="Group 44" transform="translate(-642 -835)">
    <circle id="Ellipse_6" data-name="Ellipse 6" cx="40" cy="40" r="40" transform="translate(642 835)" fill="#f2f2f2"/>
    <path id="ICO" d="M25.465,35.1v2.532l-.093.485-.137.437-.207.392-.312.347-.392.3-.392.22-.485.14-.52.045H10.942l-.532-.045-.475-.14-.392-.22-.392-.3-.312-.347-.217-.392-.127-.437L8.4,37.632V35.1H5.87l-.487-.093-.437-.127-.392-.217L4.2,34.35l-.312-.392-.22-.392-.127-.487-.045-.52V20.575l.045-.485.127-.485.22-.427L4.2,18.82l.347-.3.392-.22.437-.172.487-.048H8.4V35.1Zm1.48-17.02h11.9L28.09,31.727V22.495L19.075,33.83l-.31.347-.347.217-.392.127-.347.047-.392-.047-.357-.127-.347-.217-.312-.22-.252-.347-.22-.347-.128-.357-.092-.44v-.392l.045-.437.175-.427.265-.392L25.547,18.82l.312-.347.345-.22.392-.125ZM39.319,12l-.035.44-.045.437-.127.427-.138.44-.22.392-.22.357-.255.347-.312.347-.3.265-.357.265-.392.22-.392.22-.395.127-.437.127-.44.045-.472.048-.485-.048-.44-.045-.44-.127-.392-.127-.392-.22-.392-.22-.347-.265-.312-.265-.3-.347-.265-.347-.22-.357-.172-.392-.175-.44-.092-.427-.08-.437L30.227,12v-.485H28.09L30.227,9.38,28.042,5H39.319Zm5.825,28H28.517V35.1l6.655-7.925,7.175-9.095h.44l.472.048.44.172.392.22.347.3.31.357.22.427.127.485.048.485V40Z" transform="translate(657.5 849)" fill="#d40511" fill-rule="evenodd"/>
  </g>
</svg>
