<svg xmlns="http://www.w3.org/2000/svg" width="80" height="80" viewBox="0 0 80 80">
  <g id="Group_45" data-name="Group 45" transform="translate(-642 -835)">
    <circle id="Ellipse_6" data-name="Ellipse 6" cx="40" cy="40" r="40" transform="translate(642 835)" fill="#f2f2f2"/>
    <path id="ICO" d="M16.815,10.3a2.65,2.65,0,1,1,2.649-2.652A2.65,2.65,0,0,1,16.815,10.3Zm-4.969,7.287a3.644,3.644,0,1,1,3.644-3.644A3.643,3.643,0,0,1,11.846,17.588Zm6.7,1.214H15.372l8.675-11.86a1.486,1.486,0,0,1,2.078-.321l.865.633Zm14.774,0H23.469L30.2,9.6l5.216,3.816a1.483,1.483,0,0,1,.321,2.076Zm5.358,8.159a2.746,2.746,0,0,0,1.2-.277v5.478a1.206,1.206,0,0,1-1.2,1.2l-7.96-.01h-.007l-1.2.012v-6.4h1.206a.682.682,0,0,0,.125-.01Zm-9.931,7.96,1.974-.02,6.522.01V40H8.2A3.2,3.2,0,0,1,5,36.8V19.659a7.031,7.031,0,0,0,3.2.688H37.241v5.069H30.717a1.092,1.092,0,0,0-.127.01H28.738a.773.773,0,0,0-.773.773v7.95a.77.77,0,0,0,.773.773Z" transform="translate(660 849)" fill="#d40511" fill-rule="evenodd"/>
  </g>
</svg>
