<svg xmlns="http://www.w3.org/2000/svg" width="19.782" height="19.37" viewBox="0 0 19.782 19.37"><path d="M368.617,795.407a7.778,7.778,0,0,1-1.352-1.693l-2.674-.467a9.885,9.885,0,0,1-.572-2.508l2.207-1.582a7.669,7.669,0,0,1,.48-2.113l-1.3-2.381a9.988,9.988,0,0,1,1.606-2.011l2.611.739a7.654,7.654,0,0,1,1.952-.942l1.049-2.5a10.092,10.092,0,0,1,2.573,0l1.051,2.5a7.7,7.7,0,0,1,1.952.942l2.611-.739a9.984,9.984,0,0,1,1.6,2.011l-1.3,2.381a7.669,7.669,0,0,1,.48,2.113l2.207,1.582a9.887,9.887,0,0,1-.57,2.508l-2.676.467a7.725,7.725,0,0,1-1.35,1.693l.139,2.712a9.847,9.847,0,0,1-2.317,1.117l-2.033-1.8a7.833,7.833,0,0,1-2.166,0l-2.035,1.8a9.863,9.863,0,0,1-2.315-1.117Zm5.294-1.632a3.974,3.974,0,1,0-3.974-3.974A3.974,3.974,0,0,0,373.911,793.775Z" transform="translate(-364.02 -779.866)" fill="#231f20" fill-rule="evenodd"/></svg>