<svg xmlns="http://www.w3.org/2000/svg" width="21.995" height="20.519" viewBox="0 0 21.995 20.519"><path d="M379.8,756.931a2.518,2.518,0,1,0-2.518-2.518A2.521,2.521,0,0,0,379.8,756.931Zm2.6-.026,3.36,3.36-.77.77-3.46-3.462a3.614,3.614,0,1,1,.87-.669Zm-10.975-16.388,7.934,2.516-7.66,2.9-7.934-2.9Zm-7.66,13.023v-9.466l7.438,2.733v9.9Zm15.811-3.886a4.583,4.583,0,0,0-4.76,4.756,2.587,2.587,0,0,0,.329,1.315l-3.008,1.094V746.811l7.44-2.791Z" transform="translate(-363.769 -740.516)" fill="#231f20" fill-rule="evenodd"/></svg>