<svg xmlns="http://www.w3.org/2000/svg" width="20.519" height="12.499" viewBox="0 0 20.519 12.499"><path d="M371.5,600.169h7.285c.164,0,.164,0,.164-.168v-6.567c0-.159,0-.159-.154-.159h-14.6c-.155,0-.155,0-.155.159v6.576c0,.155,0,.159.155.159Zm12.277-12.449a.362.362,0,0,0-.041-.049h-7.117q-3.581,0-7.166,0a.259.259,0,0,0-.177.058q-2.191,2.178-4.369,4.364c-.017.019-.026.036-.049.067h14.3a.273.273,0,0,0,.211-.088q2.143-2.15,4.3-4.3A.415.415,0,0,1,383.772,587.719Zm-3.708,11.65c.045-.036.058-.045.071-.058q2.185-2.185,4.365-4.372a.215.215,0,0,0,.052-.137q.006-3.119,0-6.236c0-.026-.009-.054-.013-.093-.043.039-.075.071-.1.1l-4.29,4.29a.286.286,0,0,0-.088.216v6.143A1.421,1.421,0,0,1,380.065,599.369Z" transform="translate(-364.037 -587.67)" fill-rule="evenodd"/></svg>