<svg xmlns="http://www.w3.org/2000/svg" width="32" height="140.5" viewBox="0 0 32 140.5">
  <g id="Group_44" data-name="Group 44" transform="translate(-1 -396.5)">
    <line id="Line_1" data-name="Line 1" y1="39.5" transform="translate(16.5 396.5)" fill="none" stroke="#76bd22" stroke-width="3"/>
    <g id="DONE" transform="translate(1 429)" fill="#76bd22">
      <path d="M 16 107.5 C 11.85472869873047 107.5 7.958899974822998 105.9719696044922 5.030157089233398 103.1973648071289 C 2.108842849731445 100.4298095703125 0.5 96.75223541259766 0.5 92.84210968017578 L 0.5 15.15789604187012 C 0.5 11.24776744842529 2.108842849731445 7.570196151733398 5.030157089233398 4.802624702453613 C 7.958899974822998 2.028024673461914 11.85472869873047 0.4999961853027344 16 0.4999961853027344 C 20.14527130126953 0.4999961853027344 24.04109954833984 2.028024673461914 26.9698429107666 4.802624702453613 C 29.89115715026855 7.570196151733398 31.5 11.24776744842529 31.5 15.15789604187012 L 31.5 92.84210968017578 C 31.5 96.75223541259766 29.89115715026855 100.4298095703125 26.9698429107666 103.1973648071289 C 24.04109954833984 105.9719696044922 20.14527130126953 107.5 16 107.5 Z" stroke="none"/>
      <path d="M 16 0.9999923706054688 C 11.98320007324219 0.9999923706054688 8.209499359130859 2.4793701171875 5.374042510986328 5.165596008300781 C 2.553400039672852 7.837783813476563 1 11.38643646240234 1 15.15788269042969 L 1 92.84209442138672 C 1 96.61354064941406 2.553400039672852 100.1622085571289 5.374042510986328 102.8343963623047 C 8.209499359130859 105.520622253418 11.98320007324219 107 16 107 C 20.01679992675781 107 23.79050064086914 105.520622253418 26.62595748901367 102.8343963623047 C 29.44659996032715 100.1622085571289 31 96.61354064941406 31 92.84209442138672 L 31 15.15788269042969 C 31 11.38643646240234 29.44659996032715 7.837783813476563 26.62595748901367 5.165596008300781 C 23.79050064086914 2.4793701171875 20.01679992675781 0.9999923706054688 16 0.9999923706054688 M 16 -7.62939453125e-06 C 24.83655738830566 -7.62939453125e-06 32 6.786422729492188 32 15.15788269042969 L 32 92.84209442138672 C 32 101.2135696411133 24.83655738830566 108 16 108 C 7.163442611694336 108 0 101.2135696411133 0 92.84209442138672 L 0 15.15788269042969 C 0 6.786422729492188 7.163442611694336 -7.62939453125e-06 16 -7.62939453125e-06 Z" stroke="none" fill="#357640"/>
    </g>
  </g>
</svg>
