<svg xmlns="http://www.w3.org/2000/svg" width="128.269" height="18.999" viewBox="0 0 128.269 18.999"><path d="M-93.807,319.329h17.951V320.6l-18.887,0Zm-21.832,1.271c-4.789,0-6.085-2.311-4.618-4.293.415-.56,1.269-1.727,1.269-1.727h26.536l-4.431,6.02Zm-70.816,0,8.167-11.1h10.135c1.12,0,1.105.426.558,1.167s-1.5,2.047-2.067,2.813c-.287.387-.807,1.1.914,1.1h13.578a14.11,14.11,0,0,1-11.369,6.02Zm-16.67,0v-1.271h15.464l-.936,1.271Zm64.228,0,4.431-6.019h11.678l-4.431,6.019Zm-16.9,0,4.431-6.019h11.681l-4.429,6.02ZM-93,318.233l.94-1.279h16.2v1.279Zm-110.125,0v-1.28h17.211l-.94,1.28Zm112.811-3.653h14.458v1.278l-15.4,0Zm-112.811,1.278V314.58h18.959l-.941,1.278Zm85.138-2.641,7.818-10.614H-97.8l-7.812,10.614Zm-32.373,0,7.814-10.614h11.679l-4.478,6.085h5.213l4.482-6.085h11.677l-7.811,10.614Zm-12.869,0c-1.724,0-1.2-.707-.916-1.094.567-.766,1.5-2.075,2.053-2.828s.563-1.167-.556-1.167H-184.81l4.065-5.525h23.452c5.954,0,7.476,4.7,5.81,6.965-1.225,1.662-2.686,3.65-2.686,3.65Z" transform="translate(203.625 -302.103)" fill="#d40511" stroke="rgba(0,0,0,0)" stroke-miterlimit="10" stroke-width="1"/></svg>