<svg xmlns="http://www.w3.org/2000/svg" xmlns:xlink="http://www.w3.org/1999/xlink" width="441" height="451.5" viewBox="0 0 441 451.5"><defs><linearGradient id="a" x1="0.5" x2="0.5" y2="1" gradientUnits="objectBoundingBox"><stop offset="0" stop-color="#bdbcba"/><stop offset="1" stop-color="#acaba9"/></linearGradient><linearGradient id="b" x1="0.5" x2="0.5" y2="1" gradientUnits="objectBoundingBox"><stop offset="0" stop-color="#69a93c"/><stop offset="1" stop-color="#4e9822"/></linearGradient><radialGradient id="c" cx="0.685" cy="0.22" r="0.621" gradientUnits="objectBoundingBox"><stop offset="0" stop-color="#c2da3e"/><stop offset="1" stop-color="#a4cf34"/></radialGradient><linearGradient id="d" x1="0.5" x2="0.5" y2="0.378" gradientUnits="objectBoundingBox"><stop offset="0" stop-color="#fc0"/><stop offset="1" stop-color="#fef0b7"/></linearGradient><linearGradient id="e" x1="0.5" x2="0.5" y2="2.117" gradientUnits="objectBoundingBox"><stop offset="0" stop-color="#b1f265"/><stop offset="0.233" stop-color="#76bd22"/><stop offset="1" stop-color="#007c39"/></linearGradient><linearGradient id="f" x1="0.5" y1="1.118" x2="0.552" gradientUnits="objectBoundingBox"><stop offset="0" stop-color="#3a9b2d" stop-opacity="0.012"/><stop offset="1" stop-color="#3a9b2d"/></linearGradient><clipPath id="h"><path d="M18.161,5.566S4.415,12.332,5.6,27.666,27.38,52.118,27.38,52.118v6.727S1.144,47.232.071,28.764,13.8,0,13.8,0Z" transform="translate(-0.015)" fill="url(#a)"/></clipPath><clipPath id="i"><path d="M2.5,0S22.97,18.28,39.345,23.813s41.51,3.273,41.51,3.273L85.9,31.358l-2.848,6.09s-28.025,2.407-43.7-2.847S0,6.354,0,6.354Z" transform="translate(0)" fill="#63a33a"/></clipPath><clipPath id="j"><path d="M83.124,0S62.718,18.28,46.4,23.813,5.026,27.086,5.026,27.086L0,31.358l2.839,6.09S30.77,39.855,46.4,34.6,85.612,6.354,85.612,6.354Z" transform="translate(0 0)" fill="#63a33a"/></clipPath><clipPath id="l"><path d="M.007,1.947S-.2,23.941,5.021,38.161,36.356,70.918,34.75,85.669s-8.577,24.394-8.577,27.114,32.552,8.486,35.21,5.6-1.98-11.763-7.219-11.763H36.931S43.38,91.012,42.077,84.06s-3.51-20.073,3.139-20.073,14.435,7.986,14.435,17.27-2.324,23.193-2.324,24.28S84.8,107.711,88.9,106.624s-4.59-7.738-9.745-7.738-15.113,1.535-15.113,1.535,2.215-18.071,1.117-26.327S45.216,42.486,45.216,28.047A205.028,205.028,0,0,1,47.356,0Z" transform="translate(-0.006)" fill="url(#b)"/></clipPath><linearGradient id="m" x1="0.5" x2="0.5" y2="1" gradientUnits="objectBoundingBox"><stop offset="0" stop-color="#457630"/><stop offset="1" stop-color="#3b652b"/></linearGradient><radialGradient id="n" cx="0.5" cy="0.5" r="0.482" gradientUnits="objectBoundingBox"><stop offset="0" stop-color="#d3f1dc"/><stop offset="0.864" stop-color="#d0f0d7"/><stop offset="1" stop-color="#afe8a4"/></radialGradient><linearGradient id="o" x1="0.147" y1="0.798" x2="0.672" y2="0.309" gradientUnits="objectBoundingBox"><stop offset="0" stop-color="#3a4a3e"/><stop offset="1" stop-color="#628360"/></linearGradient><clipPath id="q"><path d="M57.072,110.294S74.448,40.915,71.441,27.088,58.412,0,37.759,0-3.741,10.371.571,35.99s27.681,74.3,27.681,74.3Z" fill="url(#c)"/></clipPath><clipPath id="r"><path d="M1.937,6A2.195,2.195,0,0,0,.166,9.013L1.9,13.219A2.195,2.195,0,0,0,4,14.575l45.99-1.4a2.195,2.195,0,0,0,2.029-1.544l2.723-8.782A2.195,2.195,0,0,0,52.386.015Z" transform="translate(0.001 0.001)" fill="#467930"/></clipPath></defs><g transform="translate(-63.068 -54.568)"><g transform="translate(63.068 54.568)"><circle cx="220.5" cy="220.5" r="220.5" transform="translate(0 0)" fill="url(#d)"/><g transform="translate(6.345 226.536)"><path d="M0,87.926a303.427,303.427,0,0,1,427.943.728c-40.905,81.137-121.3,136.31-213.789,136.31C121.391,224.964,40.79,169.463,0,87.926Z" transform="translate(0)" fill="url(#e)"/><ellipse cx="43.347" cy="17.558" rx="43.347" ry="17.558" transform="translate(187.817 88.34)" opacity="0.5" fill="url(#f)"/></g></g><g transform="translate(125.461 131.94)"><g transform="translate(93.431 100.459)"><path d="M18.161,5.566S4.415,12.332,5.6,27.666,27.38,52.118,27.38,52.118v6.727S1.144,47.232.071,28.764,13.8,0,13.8,0Z" transform="translate(-0.015)" fill="url(#a)"/><g transform="translate(0)" clip-path="url(#h)"><path d="M4.62,5.889a4.858,4.858,0,0,1-2.449-.721A4.694,4.694,0,0,1,.258,3.08,2.411,2.411,0,0,1,.291.838,2.106,2.106,0,0,1,1.258,0c-.544,1.305.32,3.054,2.011,4.07a4.856,4.856,0,0,0,2.449.721,3.122,3.122,0,0,0,1.29-.257,2.012,2.012,0,0,1-.131.26A2.519,2.519,0,0,1,4.62,5.889Z" transform="translate(3.247 8.517)" fill="#9b9b9b"/><path d="M4.62,5.889a4.858,4.858,0,0,1-2.449-.721A4.694,4.694,0,0,1,.258,3.08,2.411,2.411,0,0,1,.291.838,2.106,2.106,0,0,1,1.258,0c-.544,1.305.32,3.054,2.011,4.07a4.856,4.856,0,0,0,2.449.721,3.122,3.122,0,0,0,1.29-.257,2.012,2.012,0,0,1-.131.26A2.519,2.519,0,0,1,4.62,5.889Z" transform="matrix(0.951, -0.309, 0.309, 0.951, -0.07, 16.85)" fill="#9b9b9b"/><path d="M4.62,5.889a4.858,4.858,0,0,1-2.449-.721A4.694,4.694,0,0,1,.258,3.08,2.411,2.411,0,0,1,.291.838,2.106,2.106,0,0,1,1.258,0c-.544,1.305.32,3.054,2.011,4.07a4.856,4.856,0,0,0,2.449.721,3.122,3.122,0,0,0,1.29-.257,2.012,2.012,0,0,1-.131.26A2.519,2.519,0,0,1,4.62,5.889Z" transform="matrix(0.799, -0.602, 0.602, 0.799, -1.41, 25.038)" fill="#9b9b9b"/><path d="M4.62,5.889a4.858,4.858,0,0,1-2.449-.721A4.694,4.694,0,0,1,.258,3.08,2.411,2.411,0,0,1,.291.838,2.106,2.106,0,0,1,1.258,0c-.544,1.305.32,3.054,2.011,4.07a4.856,4.856,0,0,0,2.449.721,3.122,3.122,0,0,0,1.29-.257,2.012,2.012,0,0,1-.131.26A2.519,2.519,0,0,1,4.62,5.889Z" transform="matrix(0.588, -0.809, 0.809, 0.588, -1.112, 32.357)" fill="#9b9b9b"/><path d="M4.62,5.889a4.858,4.858,0,0,1-2.449-.721A4.694,4.694,0,0,1,.258,3.08,2.411,2.411,0,0,1,.291.838,2.106,2.106,0,0,1,1.258,0c-.544,1.305.32,3.054,2.011,4.07a4.856,4.856,0,0,0,2.449.721,3.122,3.122,0,0,0,1.29-.257,2.012,2.012,0,0,1-.131.26A2.519,2.519,0,0,1,4.62,5.889Z" transform="matrix(0.391, -0.921, 0.921, 0.391, 2.487, 41.078)" fill="#9b9b9b"/><path d="M4.62,5.889a4.858,4.858,0,0,1-2.449-.721A4.694,4.694,0,0,1,.258,3.08,2.411,2.411,0,0,1,.291.838,2.106,2.106,0,0,1,1.258,0c-.544,1.305.32,3.054,2.011,4.07a4.856,4.856,0,0,0,2.449.721,3.122,3.122,0,0,0,1.29-.257,2.012,2.012,0,0,1-.131.26A2.519,2.519,0,0,1,4.62,5.889Z" transform="translate(7.191 47.36) rotate(-82)" fill="#9b9b9b"/><path d="M4.62,5.889a4.858,4.858,0,0,1-2.449-.721A4.694,4.694,0,0,1,.258,3.08,2.411,2.411,0,0,1,.291.838,2.106,2.106,0,0,1,1.258,0c-.544,1.305.32,3.054,2.011,4.07a4.856,4.856,0,0,0,2.449.721,3.122,3.122,0,0,0,1.29-.257,2.012,2.012,0,0,1-.131.26A2.519,2.519,0,0,1,4.62,5.889Z" transform="translate(16.85 56.087) rotate(-90)" fill="#9b9b9b"/></g></g><g transform="matrix(0.966, -0.259, 0.259, 0.966, 157.901, 141.261)"><g transform="translate(0 0)"><path d="M2.5,0S22.97,18.28,39.345,23.813s41.51,3.273,41.51,3.273L85.9,31.358l-2.848,6.09s-28.025,2.407-43.7-2.847S0,6.354,0,6.354Z" transform="translate(0 0)" fill="#63a33a"/><g transform="translate(0 0)" clip-path="url(#i)"><path d="M2.5,0S22.97,17.182,39.345,22.716s41.51,3.273,41.51,3.273L85.9,30.26l-2.848,6.09s-28.025,2.407-43.7-2.847S0,5.256,0,5.256Z" transform="translate(0 6.584)" fill="#477a32"/></g></g><path d="M0,10.048a20.628,20.628,0,0,1,9-8.68c3.768-1.7,8.142-2.026,8.668.23.615,2.64-8.139,6.237-8.139,6.237S20.863,4.461,26.016,6.286c7.233,2.562,6.871,10.85-4.069,14.8C12.057,24.653.78,20.466.78,20.466Z" transform="translate(81.326 17.563)" fill="#5b9c35"/></g><g transform="matrix(0.966, -0.259, 0.259, 0.966, 228.552, 118.171)"><path d="M0,1S6.946,6.176,20.1,6.176,38.885,0,38.885,0,34.313,9.885,20.1,9.885,0,1,0,1Z" transform="translate(0 48.515)" fill="#fff"/><path d="M0,.664S4.627,4.114,13.392,4.114,25.9,0,25.9,0,22.856,6.584,13.392,6.584,0,.664,0,.664Z" transform="translate(6.492 60.05)" fill="#fff"/><path d="M0,8.663S7.058,4.27,13.985,3.077s15.343,0,15.343,0A26.951,26.951,0,0,0,12.675.352C3.429,1.944,0,8.663,0,8.663Z" transform="translate(1.639 6.432)" fill="#afb7b0"/><path d="M0,7.406S6.034,3.65,11.956,2.631a50.056,50.056,0,0,1,13.117,0A23.04,23.04,0,0,0,10.835.3,15.186,15.186,0,0,0,0,7.406Z" transform="translate(0.167 0)" fill="#afb7b0"/></g><g transform="matrix(0.995, 0.105, -0.105, 0.995, 11.872, 128.73)"><g transform="translate(25.162 0)"><path d="M83.4,0S62.928,18.28,46.553,23.813s-41.51,3.273-41.51,3.273L0,31.358l2.848,6.09s28.025,2.407,43.7-2.847S85.9,6.354,85.9,6.354Z" transform="translate(0 0)" fill="#63a33a"/><g transform="translate(0.341 0)" clip-path="url(#j)"><path d="M83.124,0S62.718,17.182,46.4,22.716,5.026,25.988,5.026,25.988L0,30.261l2.839,6.09S30.77,38.758,46.4,33.5,85.612,5.256,85.612,5.256Z" transform="translate(0 6.584)" fill="#477a32"/></g></g><path d="M30.9,10.048a20.628,20.628,0,0,0-9-8.68c-3.768-1.7-8.142-2.026-8.668.23-.615,2.64,8.139,6.237,8.139,6.237S10.036,4.461,4.882,6.286c-7.233,2.562-6.871,10.85,4.069,14.8,9.889,3.569,21.167-.619,21.167-.619Z" transform="translate(0 17.564)" fill="#5b9c35"/></g><g transform="matrix(0.995, 0.105, -0.105, 0.995, 7.239, 121.917)"><path d="M38.885,1s-6.946,5.178-20.1,5.178S0,0,0,0,4.572,9.885,18.78,9.885,38.885,1,38.885,1Z" transform="translate(0 51.133)" fill="#fff"/><path d="M25.9.664S21.275,4.114,12.51,4.114,0,0,0,0,3.045,6.584,12.51,6.584,25.9.664,25.9.664Z" transform="translate(6.492 62.668)" fill="#fff"/><path d="M29.329,8.663S22.27,4.27,15.343,3.077,0,3.077,0,3.077A26.951,26.951,0,0,1,16.654.352C25.9,1.944,29.329,8.663,29.329,8.663Z" transform="translate(8.282 6.432)" fill="#afb7b0"/><path d="M25.072,7.406S19.039,3.65,13.117,2.631A50.056,50.056,0,0,0,0,2.631,23.04,23.04,0,0,1,14.237.3,15.186,15.186,0,0,1,25.072,7.406Z" transform="translate(14.011 0)" fill="#afb7b0"/></g><g transform="translate(117.286 136.791)"><path d="M.007,1.947S-.2,23.941,5.021,38.161,36.356,70.918,34.75,85.669s-8.577,24.394-8.577,27.114,32.552,8.486,35.21,5.6-1.98-11.763-7.219-11.763H36.931S43.38,91.012,42.077,84.06s-3.51-20.073,3.139-20.073,14.435,7.986,14.435,17.27-2.324,23.193-2.324,24.28S84.8,107.711,88.9,106.624s-4.59-7.738-9.745-7.738-15.113,1.535-15.113,1.535,2.215-18.071,1.117-26.327S45.216,42.486,45.216,28.047A205.028,205.028,0,0,1,47.356,0Z" transform="translate(-0.006 0)" fill="url(#b)"/><g transform="translate(0 0)" clip-path="url(#l)"><path d="M0,11.11S-.158-3.135,9.347.86,20.342,14.8,20.342,21.3s-4.467,20.894-4.467,20.894Z" transform="translate(40.794 61.092)" fill="#44762f"/><path d="M0,3.768A205.118,205.118,0,0,1,16.461,16.585,137.656,137.656,0,0,1,27.949,28.418s6-10.642,7.716-15.937S39.2,0,39.2,0Z" transform="translate(3.509 -1.894)" fill="url(#m)"/><path d="M11.807,0S8.515,21.188,17.294,39.406,47.4,70.936,45.223,92.7,32.752,124.86,32.752,124.86L2.588,49.428,0,4.938Z" transform="translate(-8.298 -3.814)" fill="#45772e"/></g></g><path d="M79.594,123.4C102.819,84.7,104.736,0,45.271,0S-9.249,74.593,26.562,127.387C40.851,128.766,66.65,127.387,79.594,123.4Z" transform="translate(88.992 3.816)" fill="url(#n)"/><g transform="translate(102.14 95.391)" opacity="0.8"><ellipse cx="6.584" cy="7.682" rx="6.584" ry="7.682" fill="#628360"/><ellipse cx="4.938" cy="5.487" rx="4.938" ry="5.487" transform="translate(2.195 2.195)" fill="url(#o)"/></g><g transform="translate(90.55 0)"><path d="M4.772,6.37C2.846,7.142.943,6.91.255,5.719-.544,4.335.6,2.178,2.809.9s4.649-1.187,5.449.2c.732,1.267-.166,3.182-2.019,4.476l14.65,22.678L16.25,29.721Z" transform="translate(1.657 5.224)" fill="#b5d639"/><path d="M0,27.3,10.52,5.43C8.7,4.481,7.652,2.909,8.1,1.62c.52-1.512,2.9-2.064,5.311-1.233s3.947,2.729,3.426,4.241c-.475,1.379-2.5,1.959-4.68,1.419L3.3,31.832Z" transform="translate(62.61 1.648)" fill="#c2d93e"/><path d="M5.563,9.989c-2.124.413-4.124-.147-5.077-1.8C-.869,5.846.745,2.8,3.643,1.128s6.342-1.549,7.7.8c1.018,1.764.359,3.934-1.28,5.616L25.1,30.824l-8.044,2.545Z" transform="translate(0 3.572)" fill="#d0f1d7"/><path d="M0,29.117,10.324,7.66C8.684,6.333,7.842,4.5,8.449,2.732c.883-2.564,4.24-3.343,7.4-2.254S21.182,4.249,20.3,6.812c-.668,1.939-2.762,2.864-5.126,2.716L5.74,37.006Z" transform="translate(60.7 0)" fill="#ccefd3"/><g transform="translate(8.947 24.061)"><path d="M57.072,110.294S74.448,40.915,71.441,27.088,58.412,0,37.759,0-3.741,10.371.571,35.99s27.681,74.3,27.681,74.3Z" fill="url(#c)"/><g transform="translate(0)" clip-path="url(#q)"><path d="M12.556,0S8.594,11.521,15.521,33.926s24.961,67.6,24.961,67.6L25.8,92.637,0,15.491Z" transform="translate(-8.161 13.261)" fill="#92ba2b"/></g></g><path d="M.981,11.739C-2.979,7.7,5.694-.488,15.5.023S30.009,9.94,27.359,11.739s-3.755,0-11.863,0S4.94,15.773.981,11.739Z" transform="translate(37.768 106.025)" fill="#fff"/><g transform="translate(29.918 76.985) rotate(-3)"><g transform="translate(0 0)" fill="#668123" stroke-miterlimit="10"><path d="M 0.4751858711242676 8.799230575561523 C 0.5022916793823242 4.203379154205322 3.552424430847168 0.4749984741210938 7.297722339630127 0.4749984741210938 C 11.04279041290283 0.4749984741210938 14.0927791595459 4.20305061340332 14.12025451660156 8.798513412475586 C 13.6294994354248 7.837455272674561 12.95856094360352 7.01063060760498 12.12969207763672 6.354998588562012 C 10.79213237762451 5.297018527984619 9.121262550354004 4.737798690795898 7.297722339630127 4.737798690795898 C 5.474162101745605 4.737798690795898 3.803292274475098 5.297018527984619 2.465742349624634 6.354988574981689 C 1.636229753494263 7.011127948760986 0.965302050113678 7.838202476501465 0.4751858711242676 8.799230575561523 Z" stroke="none"/><path d="M 13.46403217315674 6.976234912872314 C 13.1849193572998 5.5561842918396 12.58994674682617 4.255831241607666 11.72225189208984 3.202248573303223 C 10.52612209320068 1.749858498573303 8.954802513122559 0.9499984979629517 7.297722339630127 0.9499984979629517 C 5.640642166137695 0.9499984979629517 4.069322109222412 1.749858498573303 2.873192310333252 3.202248573303223 C 2.00549840927124 4.255831241607666 1.41054105758667 5.55610179901123 1.131428599357605 6.976152420043945 C 1.445642471313477 6.613918781280518 1.792837500572205 6.281625747680664 2.171072244644165 5.982448577880859 C 3.593352317810059 4.857438564300537 5.366122245788574 4.262798309326172 7.297722339630127 4.262798309326172 C 9.229302406311035 4.262798309326172 11.00206279754639 4.857438564300537 12.42437267303467 5.982448577880859 C 12.80252933502197 6.281571865081787 13.1497163772583 6.613877296447754 13.46403217315674 6.976234912872314 M 0.2094123363494873 10.97739887237549 L 0.2072623372077942 10.97737884521484 C 0.06973233819007874 10.28518867492676 2.33963010032312e-06 9.573198318481445 2.33963010032312e-06 8.861178398132324 C 2.33963010032312e-06 3.975098371505737 3.273742437362671 -1.517486566626758e-06 7.297722339630127 -1.517486566626758e-06 C 11.321702003479 -1.517486566626758e-06 14.59544277191162 3.975098371505737 14.59544277191162 8.861178398132324 C 14.59544277191162 9.574968338012695 14.5253324508667 10.28522872924805 14.38705253601074 10.97221851348877 C 14.00754261016846 9.216338157653809 13.1258020401001 7.74854850769043 11.83501243591309 6.727538585662842 C 10.58219242095947 5.736588478088379 9.013232231140137 5.212798595428467 7.297722339630127 5.212798595428467 C 5.582212448120117 5.212798595428467 4.013232231140137 5.736588478088379 2.760422229766846 6.727538585662842 C 1.468292355537415 7.749598503112793 0.586172342300415 9.219178199768066 0.2094123363494873 10.97739887237549 Z" stroke="none" fill="#668123"/></g><g transform="translate(28.148 0)" fill="#668123" stroke-miterlimit="10"><path d="M 10.97944831848145 6.328812122344971 C 9.918084144592285 4.666954040527344 8.045439720153809 3.694842100143433 5.734273433685303 3.694842100143433 C 3.42422080039978 3.694842100143433 1.551036477088928 4.666693687438965 0.4881733357906342 6.327922344207764 C 0.6807793378829956 3.061891794204712 2.960150241851807 0.4750021994113922 5.734273433685303 0.4750021994113922 C 8.508233070373535 0.4750021994113922 10.78738594055176 3.062191486358643 10.97944831848145 6.328812122344971 Z" stroke="none"/><path d="M 1.253468871116638 4.73343563079834 C 2.405863523483276 3.762181043624878 3.949211120605469 3.219842195510864 5.734273433685303 3.219842195510864 C 7.519540786743164 3.219842195510864 9.062368392944336 3.761918783187866 10.21396541595459 4.732804298400879 C 9.53296947479248 2.525129318237305 7.781796455383301 0.9500021934509277 5.734273433685303 0.9500021934509277 C 3.686170101165771 0.9500021934509277 1.934489369392395 2.525487184524536 1.253468871116638 4.73343563079834 M 11.30578327178955 8.370502471923828 C 10.73656368255615 5.779442310333252 8.601693153381348 4.16984224319458 5.734273433685303 4.16984224319458 C 2.869473218917847 4.16984224319458 0.7338232398033142 5.777502059936523 0.160733237862587 8.365442276000977 C 0.05335324630141258 7.847952365875244 3.245086645620177e-06 7.313271999359131 3.245086645620177e-06 6.776242256164551 C 3.245086645620177e-06 3.039812088012695 2.572383165359497 2.189636234106729e-06 5.734273433685303 2.189636234106729e-06 C 8.895623207092285 2.189636234106729e-06 11.46756362915039 3.039812088012695 11.46756362915039 6.776242256164551 C 11.46756362915039 7.314962387084961 11.41386318206787 7.851352214813232 11.30793285369873 8.370491981506348 L 11.30578327178955 8.370502471923828 Z" stroke="none" fill="#668123"/></g></g></g><path d="M42.624,95.734c-.647-1.882-.419-3.378.338-8.332.1-.639.2-1.332.317-2.091a127.576,127.576,0,0,0,1.4-21.3,107.572,107.572,0,0,0-2.368-20.924q-.809-3.691-1.88-7.127c-.037,4.38-1.571,7.8-4.333,8.756-4.3,1.479-9.941-3.592-12.6-11.328S22.154,18.176,26.451,16.7a5.928,5.928,0,0,1,4.911.737,45.043,45.043,0,0,0-6.94-7.526,21.352,21.352,0,0,0-2.2-1.548c-2.288-1.479-4.881-3.155-5.135-5.8a39.512,39.512,0,0,1,19.227,14.5c4.546,6.282,7.821,14.148,9.735,23.377a93.342,93.342,0,0,1,1.744,13.6,113.691,113.691,0,0,1-.106,14.13,124.893,124.893,0,0,1-5.059,27.568v0ZM0,.008C.315,0,.652,0,1,0c.687,0,1.381.012,2.06.037v0C2.121.024,1.119.014,0,.008Z" transform="translate(133.361 7.413)" fill="#fff"/><g transform="translate(114.304 124.792)"><path d="M1.937,6A2.195,2.195,0,0,0,.166,9.013L1.9,13.219A2.195,2.195,0,0,0,4,14.575l45.99-1.4a2.195,2.195,0,0,0,2.029-1.544l2.723-8.782A2.195,2.195,0,0,0,52.386.015Z" transform="translate(0.001 0.001)" fill="#467930"/><g transform="translate(0 0)" clip-path="url(#r)"><path d="M1.938,6A2.195,2.195,0,0,0,.168,9.014L1.9,13.22A2.195,2.195,0,0,0,4,14.576l45.99-1.4a2.195,2.195,0,0,0,2.029-1.544l2.723-8.782A2.195,2.195,0,0,0,52.387.016Z" transform="translate(0.419 5.159) rotate(3)" fill="#274320"/></g></g></g></g></svg>